<?xml version="1.0" encoding="UTF-8"?>
<svg width="40px" height="200px" viewBox="0 0 40 200" version="1.1" xmlns="http://www.w3.org/2000/svg" xmlns:xlink="http://www.w3.org/1999/xlink">
    <!-- Generator: Sketch 64 (93537) - https://sketch.com -->
    <title>画板</title>
    <desc>Created with Sketch.</desc>
    <g id="画板" stroke="none" stroke-width="1" fill="none" fill-rule="evenodd">
        <g id="大括号" fill="#231815" fill-rule="nonzero">
            <path d="M22.2222222,170 C22.2222222,177.6 23.4343434,183.6 26.2626263,188.4 C29.0909091,192.8 33.5353535,195.2 40,195.2 L40,200 C31.9191919,200 25.8585859,197.6 21.8181818,192.4 C18.1818182,187.6 16.1616162,178.4 16.1616162,165.6 L16.1616162,127.6 C16.1616162,120.4 15.3535354,114.8 13.3333333,110.4 C11.3131313,106 6.86868687,103.6 0,102.8 L0,97.6 C6.46464646,96.8 10.5050505,94.4 12.9292929,90.8 C15.3535354,87.2 16.1616162,81.2 16.1616162,73.2 L16.1616162,34.8 C16.1616162,21.6 18.1818182,12.8 21.8181818,7.6 C25.8585859,2.4 31.9191919,0 40,0 L40,5.2 C33.5353535,5.2 29.0909091,7.2 26.2626263,11.6 C23.4343434,15.6 22.2222222,22 22.2222222,30.4 L22.2222222,74.4 C22.2222222,84 20.6060606,90.4 16.969697,94 C13.3333333,97.6 9.6969697,99.2 5.65656566,99.2 L5.65656566,100.8 C10.1010101,100.8 13.7373737,102.8 16.969697,107.2 C20.2020202,111.2 21.8181818,117.6 21.8181818,126 L21.8181818,170 L22.2222222,170 Z" id="路径"></path>
        </g>
    </g>
</svg>