<?xml version="1.0" encoding="utf-8"?>
<!-- Generator: Adobe Illustrator 24.0.1, SVG Export Plug-In . SVG Version: 6.00 Build 0)  -->
<svg version="1.1" id="图层_1" xmlns="http://www.w3.org/2000/svg" xmlns:xlink="http://www.w3.org/1999/xlink" x="0px" y="0px"
	 viewBox="0 0 100 100" style="enable-background:new 0 0 100 100;" xml:space="preserve">
<style type="text/css">
	.st0{fill:none;stroke:#000000;stroke-width:2;stroke-miterlimit:10;}
	.st1{fill:#FFFFFF;stroke:#000000;stroke-width:2;stroke-miterlimit:10;}
	.st2{fill:#FFFFFF;stroke:#000000;stroke-width:2;stroke-linecap:round;stroke-miterlimit:10;}
	.st3{fill:none;stroke:#000000;stroke-width:2;stroke-linecap:round;stroke-linejoin:round;stroke-miterlimit:10;}
	.st4{fill:#FFFFFF;stroke:#000000;stroke-width:2;stroke-linecap:round;stroke-linejoin:round;stroke-miterlimit:10;}
	.st5{fill:none;stroke:#000000;stroke-width:2;stroke-linecap:round;stroke-miterlimit:10;}
</style>
<path class="st0" d="M63.44,80.54H36.58c-0.74,0-1.34-0.6-1.34-1.34V68.19c0-0.74,0.6-1.34,1.34-1.34h26.85
	c0.74,0,1.34,0.6,1.34,1.34V79.2C64.78,79.93,64.17,80.54,63.44,80.54z"/>
<path class="st3" d="M50.64,22.44l5.63,11.4c0.1,0.21,0.3,0.35,0.53,0.39l12.58,1.83c0.58,0.08,0.81,0.8,0.39,1.21l-9.11,8.88
	c-0.17,0.16-0.24,0.4-0.2,0.63l2.15,12.53c0.1,0.58-0.51,1.02-1.03,0.75l-11.26-5.92c-0.21-0.11-0.45-0.11-0.66,0l-11.26,5.92
	c-0.52,0.27-1.13-0.17-1.03-0.75l2.15-12.53c0.04-0.23-0.04-0.46-0.2-0.63l-9.11-8.88c-0.42-0.41-0.19-1.12,0.39-1.21l12.58-1.83
	c0.23-0.03,0.43-0.18,0.53-0.39l5.63-11.4C49.63,21.92,50.38,21.92,50.64,22.44z"/>
<g>
	<line class="st0" x1="46.93" y1="56.13" x2="46.93" y2="67.41"/>
	<line class="st0" x1="53.09" y1="56.13" x2="53.09" y2="67.41"/>
</g>
</svg>
