<?xml version="1.0" encoding="utf-8"?>
<!-- Generator: Adobe Illustrator 24.0.1, SVG Export Plug-In . SVG Version: 6.00 Build 0)  -->
<svg version="1.1" id="图层_1" xmlns="http://www.w3.org/2000/svg" xmlns:xlink="http://www.w3.org/1999/xlink" x="0px" y="0px"
	 viewBox="0 0 100 100" style="enable-background:new 0 0 100 100;" xml:space="preserve">
<style type="text/css">
	.st0{fill:none;stroke:#000000;stroke-width:2;stroke-miterlimit:10;}
	.st1{fill:#FFFFFF;stroke:#000000;stroke-width:2;stroke-miterlimit:10;}
	.st2{fill:#FFFFFF;stroke:#000000;stroke-width:2;stroke-linecap:round;stroke-miterlimit:10;}
	.st3{fill:none;stroke:#000000;stroke-width:2;stroke-linecap:round;stroke-linejoin:round;stroke-miterlimit:10;}
	.st4{fill:#FFFFFF;stroke:#000000;stroke-width:2;stroke-linecap:round;stroke-linejoin:round;stroke-miterlimit:10;}
	.st5{fill:none;stroke:#000000;stroke-width:2;stroke-linecap:round;stroke-miterlimit:10;}
</style>
<path class="st3" d="M73.25,65.58h-8.29c-1.85,0-3.51,0.8-4.68,2.07c-1.17-1.27-2.83-2.07-4.68-2.07h-8.29
	c-1.85,0-3.51,0.8-4.68,2.07c-1.17-1.27-2.83-2.07-4.68-2.07h-8.29c-3.5,0-6.37,2.87-6.37,6.37h17.64h3.39h14.25h3.39h17.64
	C79.62,68.44,76.75,65.58,73.25,65.58z"/>
<path class="st3" d="M77,58.28H25.72c-1.1,0-2-0.9-2-2V28.9c0-1.1,0.9-2,2-2H77c1.1,0,2,0.9,2,2v27.38C79,57.38,78.1,58.28,77,58.28
	z"/>
<circle class="st1" cx="33.82" cy="57.77" r="7.69"/>
<circle class="st1" cx="51.46" cy="57.77" r="7.69"/>
<circle class="st1" cx="69.1" cy="57.77" r="7.69"/>
</svg>
