<?xml version="1.0" encoding="utf-8"?>
<!-- Generator: Adobe Illustrator 24.0.1, SVG Export Plug-In . SVG Version: 6.00 Build 0)  -->
<svg version="1.1" id="图层_1" xmlns="http://www.w3.org/2000/svg" xmlns:xlink="http://www.w3.org/1999/xlink" x="0px" y="0px"
	 viewBox="0 0 100 100" style="enable-background:new 0 0 100 100;" xml:space="preserve">
<style type="text/css">
	.st0{fill:none;stroke:#000000;stroke-width:2;stroke-miterlimit:10;}
	.st1{fill:#FFFFFF;stroke:#000000;stroke-width:2;stroke-miterlimit:10;}
	.st2{fill:#FFFFFF;stroke:#000000;stroke-width:2;stroke-linecap:round;stroke-miterlimit:10;}
	.st3{fill:none;stroke:#000000;stroke-width:2;stroke-linecap:round;stroke-linejoin:round;stroke-miterlimit:10;}
	.st4{fill:#FFFFFF;stroke:#000000;stroke-width:2;stroke-linecap:round;stroke-linejoin:round;stroke-miterlimit:10;}
	.st5{fill:none;stroke:#000000;stroke-width:2;stroke-linecap:round;stroke-miterlimit:10;}
</style>
<circle class="st0" cx="58.35" cy="49.1" r="6.71"/>
<path class="st3" d="M67.53,62.53c0-4.12-2.5-6.62-5.56-6.62h-7.24c-3.06,0-5.56,2.5-5.56,6.62H67.53z"/>
<path class="st3" d="M76.13,77.95h-48c-1.1,0-2-0.9-2-2v-48c0-1.1,0.9-2,2-2h48c1.1,0,2,0.9,2,2v48
	C78.13,77.05,77.23,77.95,76.13,77.95z"/>
<line class="st3" x1="39.91" y1="26" x2="39.91" y2="77.44"/>
<line class="st3" x1="26.87" y1="34.35" x2="32.48" y2="34.35"/>
<line class="st3" x1="26.87" y1="46.03" x2="32.48" y2="46.03"/>
<line class="st3" x1="26.87" y1="57.72" x2="32.48" y2="57.72"/>
<line class="st3" x1="26.87" y1="69.4" x2="32.48" y2="69.4"/>
</svg>
