<?xml version="1.0" encoding="utf-8"?>
<!-- Generator: Adobe Illustrator 24.0.1, SVG Export Plug-In . SVG Version: 6.00 Build 0)  -->
<svg version="1.1" id="图层_1" xmlns="http://www.w3.org/2000/svg" xmlns:xlink="http://www.w3.org/1999/xlink" x="0px" y="0px"
	 viewBox="0 0 100 100" style="enable-background:new 0 0 100 100;" xml:space="preserve">
<style type="text/css">
	.st0{fill:none;stroke:#000000;stroke-width:2;stroke-miterlimit:10;}
	.st1{fill:#FFFFFF;stroke:#000000;stroke-width:2;stroke-miterlimit:10;}
	.st2{fill:#FFFFFF;stroke:#000000;stroke-width:2;stroke-linecap:round;stroke-miterlimit:10;}
	.st3{fill:none;stroke:#000000;stroke-width:2;stroke-linecap:round;stroke-linejoin:round;stroke-miterlimit:10;}
	.st4{fill:#FFFFFF;stroke:#000000;stroke-width:2;stroke-linecap:round;stroke-linejoin:round;stroke-miterlimit:10;}
	.st5{fill:none;stroke:#000000;stroke-width:2;stroke-linecap:round;stroke-miterlimit:10;}
</style>
<path class="st4" d="M54.85,59.21H29.72c-1.1,0-2-0.9-2-2V27.56c0-1.1,0.9-2,2-2h15.85l11.28,11.08v20.56
	C56.85,58.31,55.95,59.21,54.85,59.21z"/>
<path class="st3" d="M45.56,25.56V36.1c0,0.51,0.41,0.92,0.92,0.92h10.36"/>
<path class="st4" d="M73.1,77.46H47.97c-1.1,0-2-0.9-2-2V45.82c0-1.1,0.9-2,2-2h15.85L75.1,54.9v20.56
	C75.1,76.56,74.2,77.46,73.1,77.46z"/>
<path class="st3" d="M63.82,43.82v10.54c0,0.51,0.41,0.92,0.92,0.92H75.1"/>
</svg>
