<?xml version="1.0" encoding="utf-8"?>
<!-- Generator: Adobe Illustrator 24.0.1, SVG Export Plug-In . SVG Version: 6.00 Build 0)  -->
<svg version="1.1" id="图层_1" xmlns="http://www.w3.org/2000/svg" xmlns:xlink="http://www.w3.org/1999/xlink" x="0px" y="0px"
	 viewBox="0 0 100 100" style="enable-background:new 0 0 100 100;" xml:space="preserve">
<style type="text/css">
	.st0{fill:none;stroke:#000000;stroke-width:2;stroke-miterlimit:10;}
	.st1{fill:#FFFFFF;stroke:#000000;stroke-width:2;stroke-miterlimit:10;}
	.st2{fill:#FFFFFF;stroke:#000000;stroke-width:2;stroke-linecap:round;stroke-miterlimit:10;}
	.st3{fill:none;stroke:#000000;stroke-width:2;stroke-linecap:round;stroke-linejoin:round;stroke-miterlimit:10;}
	.st4{fill:#FFFFFF;stroke:#000000;stroke-width:2;stroke-linecap:round;stroke-linejoin:round;stroke-miterlimit:10;}
	.st5{fill:none;stroke:#000000;stroke-width:2;stroke-linecap:round;stroke-miterlimit:10;}
</style>
<path class="st0" d="M70.85,77.87H29.92c-1.1,0-2-0.9-2-2v-39.9c0-1.1,0.9-2,2-2h40.92c1.1,0,2,0.9,2,2v39.9
	C72.85,76.97,71.95,77.87,70.85,77.87z"/>
<circle class="st1" cx="50.49" cy="30.49" r="6.97"/>
<path class="st1" d="M64.85,37.46H36.33c-0.68,0-1.23-0.55-1.23-1.23v-4.31c0-0.68,0.55-1.23,1.23-1.23h28.51
	c0.68,0,1.23,0.55,1.23,1.23v4.31C66.08,36.91,65.52,37.46,64.85,37.46z"/>
<circle cx="37.56" cy="47.51" r="1.85"/>
<line class="st2" x1="43.51" y1="47.51" x2="63" y2="47.51"/>
<circle cx="37.56" cy="56.54" r="1.85"/>
<line class="st2" x1="43.51" y1="56.54" x2="63" y2="56.54"/>
<circle cx="37.56" cy="65.56" r="1.85"/>
<line class="st2" x1="43.51" y1="65.56" x2="63" y2="65.56"/>
</svg>
