<?xml version="1.0" encoding="utf-8"?>
<!-- Generator: Adobe Illustrator 24.0.1, SVG Export Plug-In . SVG Version: 6.00 Build 0)  -->
<svg version="1.1" id="图层_1" xmlns="http://www.w3.org/2000/svg" xmlns:xlink="http://www.w3.org/1999/xlink" x="0px" y="0px"
	 viewBox="0 0 100 100" style="enable-background:new 0 0 100 100;" xml:space="preserve">
<style type="text/css">
	.st0{fill:none;stroke:#000000;stroke-width:2;stroke-miterlimit:10;}
	.st1{fill:#FFFFFF;stroke:#000000;stroke-width:2;stroke-miterlimit:10;}
	.st2{fill:#FFFFFF;stroke:#000000;stroke-width:2;stroke-linecap:round;stroke-miterlimit:10;}
	.st3{fill:none;stroke:#000000;stroke-width:2;stroke-linecap:round;stroke-linejoin:round;stroke-miterlimit:10;}
	.st4{fill:#FFFFFF;stroke:#000000;stroke-width:2;stroke-linecap:round;stroke-linejoin:round;stroke-miterlimit:10;}
	.st5{fill:none;stroke:#000000;stroke-width:2;stroke-linecap:round;stroke-miterlimit:10;}
</style>
<circle class="st0" cx="33.26" cy="36.64" r="2.67"/>
<circle class="st0" cx="33.26" cy="52.85" r="2.67"/>
<circle class="st0" cx="33.26" cy="69.05" r="2.67"/>
<path class="st0" d="M74.28,44.44H25.46c-0.91,0-1.64-0.73-1.64-1.64V29.67c0-0.91,0.73-1.64,1.64-1.64h48.82
	c0.91,0,1.64,0.73,1.64,1.64v13.13C75.92,43.7,75.19,44.44,74.28,44.44z"/>
<path class="st0" d="M74.28,61.05H25.46c-0.91,0-1.64-0.73-1.64-1.64V46.28c0-0.91,0.73-1.64,1.64-1.64h48.82
	c0.91,0,1.64,0.73,1.64,1.64v13.13C75.92,60.32,75.19,61.05,74.28,61.05z"/>
<path class="st0" d="M74.28,77.67H25.46c-0.91,0-1.64-0.73-1.64-1.64V62.9c0-0.91,0.73-1.64,1.64-1.64h48.82
	c0.91,0,1.64,0.73,1.64,1.64v13.13C75.92,76.93,75.19,77.67,74.28,77.67z"/>
</svg>
